<svg width="34" height="30" viewBox="0 0 34 30" fill="none" xmlns="http://www.w3.org/2000/svg">
<path d="M1.5 1.5H4.125L5.25 6M5.25 6L9 21H28.5L32.25 6H5.25Z" stroke="black" stroke-width="3" stroke-linecap="round" stroke-linejoin="round"/>
<path d="M9 28.5C10.2426 28.5 11.25 27.4926 11.25 26.25C11.25 25.0074 10.2426 24 9 24C7.75736 24 6.75 25.0074 6.75 26.25C6.75 27.4926 7.75736 28.5 9 28.5Z" stroke="black" stroke-width="3" stroke-linecap="round" stroke-linejoin="round"/>
<path d="M28.5 28.5C29.7426 28.5 30.75 27.4926 30.75 26.25C30.75 25.0074 29.7426 24 28.5 24C27.2574 24 26.25 25.0074 26.25 26.25C26.25 27.4926 27.2574 28.5 28.5 28.5Z" stroke="black" stroke-width="3" stroke-linecap="round" stroke-linejoin="round"/>
</svg>
